#!OML:ASF E:/inclinewalkrobotboard/Project1/Captureday1/Session1/subject1.ASF
:FULLY-SPECIFIED
:DEGREES
126
root 0 0 0 1.2581882403457705 -3.5916608724538976 1.899773639624894
lowerback 12.042909323179758 0.8482618369867048 -0.1076728906742297
upperback -4.409474048399089 1.0653008014611973 -0.6024619832270183
thorax -11.573038318797227 0.4872413234183491 -0.8027442039608927
lowerneck -5.961950796291714 1.7282865982854319 4.6999109135912756
upperneck 18.393727324918714 3.2871125056689934 -8.468641335137159
head 6.731556383738435 1.212743774034077 -3.252904136852785
rclavicle -3.765902983427213E-16 -2.1118609312861685E-15
rhumerus 20.78980178834626 14.833561012380164 -47.29486917846366
rradius 72.8751549453257
rwrist 27.418041869520565
rhand -34.55805560109899 -57.65181136073306
rfingers 7.12502000000002
rthumb -7.751579341271167 -87.60808556316056
lclavicle -2.2009535429676475E-15 4.1760494478840514E-16
lhumerus 21.8898386623543 -13.057949017541334 44.45107673354552
lradius 70.73837590959464
lwrist -22.50273294057576
lhand -45.09577920852664 -70.84175018651666
lfingers 7.125020000000016
lthumb -17.85740541224134 -41.89857086457771
rfemur -25.616664045880984 -2.371053633860938 16.8765333995218
rtibia 54.52148661817683
rfoot -31.336933278712785 -17.85375766401769
rtoes -19.029685088848815
lfemur -27.991143530707408 2.8337069353947855 -18.344167106996352
ltibia 54.789936673158536
lfoot -33.21757443581616 -3.5333176234365276
ltoes -20.650738505830734
127
root 0 0 0 1.2582385806899516 -3.59184211184927 1.8996549060232217
lowerback 12.04286955438144 0.8482875003169154 -0.10761971421778838
upperback -4.409499753400486 1.065341463123102 -0.6024390831892613
thorax -11.573040700585356 0.4872610110480616 -0.8027596590626258
lowerneck -5.9618950698361015 1.7283160322010593 4.699911313985509
upperneck 18.393739235739318 3.2871545186836304 -8.468674010348655
head 6.731548539874808 1.2127583128539952 -3.2529096701049536
rclavicle -3.7662348804618003E-16 -2.112090966143784E-15
rhumerus 20.789738312609643 14.833351062644683 -47.29465502321048
rradius 72.87520895129116
rwrist 27.418230041496386
rhand -34.55811573362618 -57.65194159154629
rfingers 7.12502000000002
rthumb -7.751616040338208 -87.6082723402823
lclavicle -2.2025572633612177E-15 4.1931426148002575E-16
lhumerus 21.89013439102409 -13.058184257459226 44.45090302383824
lradius 70.73869143703617
lwrist -22.50277031069016
lhand -45.09590407189243 -70.84222911605343
lfingers 7.125020000000016
lthumb -17.857509674747376 -41.899157788425654
rfemur -25.615407278087016 -2.3710510712918573 16.876874533681427
rtibia 54.520628754840885
rfoot -31.338442142077913 -17.852970168314364
rtoes -19.03386837357982
lfemur -27.989261155279756 2.8321264432644884 -18.342063932345905
ltibia 54.78516094699139
lfoot -33.21836564542677 -3.5324158289783134
ltoes -20.657253834771033
128
root 0 0 0 1.2581836369082766 -3.5918125244305075 1.899610210136601
lowerback 12.042794661348088 0.8483002558879338 -0.10760742865645445
upperback -4.409497595635372 1.0653579541741085 -0.6024245811443673
thorax -11.572997018417137 0.48726932185009186 -0.8027517161261488
lowerneck -5.961836836748921 1.7283512692529304 4.699972622916681
upperneck 18.393801166266158 3.287207786334119 -8.468762847217674
head 6.731557216219003 1.212778140519759 -3.2529402204653355
rclavicle -3.777918864094424E-16 -2.1124742718745053E-15
rhumerus 20.789207474610997 14.832611635450101 -47.29414296002315
rradius 72.8748105706125
rwrist 27.418785859192532
rhand -34.55815223511476 -57.65215267371329
rfingers 7.12502000000002
rthumb -7.751659408416712 -87.60841490033229
lclavicle -2.2030911612848476E-15 4.191251971310223E-16
lhumerus 21.890047424473607 -13.057910621233882 44.45077641204762
lradius 70.73856748282887
lwrist -22.50293142219177
lhand -45.0959267576519 -70.84257502832685
lfingers 7.125020000000016
lthumb -17.85753456831945 -41.899531381550304
rfemur -25.61386522440634 -2.3712713805419963 16.87672815783286
rtibia 54.521588672194945
rfoot -31.337307950392656 -17.85164516872657
rtoes -19.03606502323023
lfemur -27.987418605454494 2.831986365289946 -18.342190776371513
ltibia 54.785480121133915
lfoot -33.21664358199769 -3.5341848780850555
ltoes -20.659064495006998
129
root 0 0 0 1.2576522827172876 -3.5911865100099964 1.8995513976200131
lowerback 12.04296395571135 0.848160298573039 -0.10757667569762219
upperback -4.409418733957442 1.0652192069089568 -0.6023720960841971
thorax -11.573016017635279 0.4871862518272797 -0.8027394921496349
lowerneck -5.9621595382770245 1.7281773216628624 4.699926725752528
upperneck 18.3937386130246 3.2869449744892245 -8.468621956767148
head 6.73160589769257 1.212661132216553 -3.252930959182933
rclavicle -3.8674483115284465E-16 -2.0995612174512755E-15
rhumerus 20.787404887721785 14.829757901740097 -47.294626681865175
rradius 72.87558435348738
rwrist 27.418513522248695
rhand -34.55933006645908 -57.65182752087407
rfingers 7.12502000000002
rthumb -7.7526809356432835 -87.60701415469467
lclavicle -2.2363724492056025E-15 4.301238867556665E-16
lhumerus 21.89075089952773 -13.061192616491669 44.45246140562175
lradius 70.7402730547386
lwrist -22.500475880856925
lhand -45.095465158332395 -70.8370336376316
lfingers 7.125020000000016
lthumb -17.856935226942248 -41.89379856905997
rfemur -25.61469569858912 -2.375794317026008 16.878744250579672
rtibia 54.52893705888861
rfoot -31.33195950198017 -17.850055562277987
rtoes -19.015796267335503
lfemur -27.99463140028793 2.8365466835918474 -18.347624748758168
ltibia 54.79734713669741
lfoot -33.21045254667036 -3.5362411761946255
ltoes -20.639151271635534
130
root 0 0 0 1.2581908905939798 -3.5916714658364004 1.8997678396795794
lowerback 12.04290607180418 0.8482634319251909 -0.10767081064592865
upperback -4.409474868773024 1.065303126346448 -0.6024607504132645
thorax -11.573037161915455 0.4872424920367897 -0.8027444588795178
lowerneck -5.961946886896613 1.7282882635680459 4.699911311188052
upperneck 18.393728472349142 3.287115055551344 -8.468643794169983
head 6.7315559895260915 1.212744709074547 -3.252904653554901
rclavicle -3.7657006257618844E-16 -2.111851621330823E-15
rhumerus 20.789829060748254 14.833598811623377 -47.29488998382548
rradius 72.87517601025333
rwrist 27.418017750447177
rhand -34.55805637232004 -57.65181155778132
rfingers 7.12502000000002
rthumb -7.751579697982482 -87.60808875800222
lclavicle -2.200947153847341E-15 4.1760674363313774E-16
lhumerus 21.889849191072884 -13.057968313621869 44.45107968340393
lradius 70.7383900199234
lwrist -22.502722714289355
lhand -45.09578085123282 -70.8417369478831
lfingers 7.125020000000016
lthumb -17.85740683705565 -41.898559282811874
rfemur -25.616606102223184 -2.371053039732484 16.87654324590452
rtibia 54.521462773025924
rfoot -31.33698465833273 -17.85373070288123
rtoes -19.029841232381255
lfemur -27.991116758439446 2.833657009540237 -18.34409512574159
ltibia 54.789757576171155
lfoot -33.21760131877727 -3.533268964746452
ltoes -20.65090501923379
